<?xml version="1.0" encoding="utf-8"?>
<!-- Generator: Adobe Illustrator 27.7.0, SVG Export Plug-In . SVG Version: 6.00 Build 0)  -->
<svg version="1.1" id="Layer_1" xmlns="http://www.w3.org/2000/svg" xmlns:xlink="http://www.w3.org/1999/xlink" x="0px" y="0px"
	 viewBox="0 0 700.1 114.8" style="enable-background:new 0 0 700.1 114.8;" xml:space="preserve">
<style type="text/css">
	.st0{fill:#FFFFFF;}
</style>
<g>
	<g>
		<path class="st0" d="M327.7,3.5c5.7,0,16.5-0.3,18.5-0.5c0.8,0.5,1,4.2,0.2,4.9c-1.8,0.3-4.8,0.9-6,1.2c-2.2,0.7-2.3,2.5-1.2,4.9
			c4.3,9.8,17.5,36.5,21,42.7c0.2,0,0.8,0,1-0.2c5.8-10,17.5-32.3,20.7-40.4c1.5-3.3,1.3-5.8-3.3-6.8c-2.2-0.5-4.2-0.7-7.9-1.4
			c-0.7-0.9-0.3-4.5,0.5-4.9c5,0.2,12.5,0.5,18.4,0.5c8,0,12-0.2,17.7-0.5c0.8,0.3,0.8,4.4,0.2,4.9l-7,1.4c-5,1.4-7.3,4-11.7,11.2
			c-7.2,11.8-19.5,34.8-23.4,42.7c-0.7,1.6-1.3,4.6-1.3,6.1c0,6.9,0.2,15.6,0.3,24.6c0.2,7.7,1,10.5,5.5,11.6
			c2.7,0.7,5.7,1.1,10.2,1.6c0.5,0.7,0.2,4.4-0.5,4.9c-4.2,0-13.4-0.5-23-0.5c-11.8,0-19.4,0.5-24,0.5c-0.7-0.5-0.7-4.4,0-4.9
			c4.3-0.5,8.5-1.1,11.3-1.8c4.5-1.2,5.5-4.2,5.7-9.7c0.2-8.6,0.2-15.1,0.2-22.7c0-2.5-0.5-6.3-1.3-8.4c-3.5-8.4-13.3-27.7-20-40.6
			c-6.5-12-8-13.3-14-14.9c-0.2,0-0.4-0.1-0.5-0.1c-3.5-0.8-7.1-0.6-10.5,0.5c-0.2,0.1-0.4,0.1-0.6,0.2c-4.3,1.6-5.3,4.7-5.7,9.5
			c-1,13.5-0.8,36-1.3,69.2c0,8.1,0.2,18.3,0.3,24c-1.8-0.2-9.5-0.2-11.5,0c-8.8-13.3-54.7-73.8-64.8-86.9c-0.2-0.2-0.7,0-0.7,0.2
			c-0.3,18.1-0.3,59.2,0.2,69c0.3,7,2.5,9.5,6.8,10.5c2.5,0.9,5.8,1.2,10,1.8c0.7,0.7,0.2,4.4-0.3,5.1c-4,0-11.5-0.5-20.9-0.5
			c-10.2,0-16.5,0.5-20,0.5c-0.5-0.5-0.5-4.6,0-5.1c3.7-0.4,6.3-0.9,8.8-1.6c3.8-1.2,6-3.5,6.3-10.3c0.7-9.1,1.2-37.8,1.5-74.7
			c0-2.6-0.8-6.5-4.5-8.6c-3.2-2.3-6.8-3.2-13.4-3.9c-0.5-0.5-0.3-4.4,0.3-4.9c4.2,0,12.5,0.5,20.9,0.5c3.3,0,6.2,0,7.5-0.2
			c0.7,1.8,1.7,3.7,6,9.5c17,22.5,51.2,66.4,59.2,76.2c0.3,0.2,0.5,0,0.7-0.2c0-24.1,0.2-56.9-0.7-69.6c-0.3-5.1-1.3-7.9-6.3-9.3
			c-3-0.9-6.7-1.6-11.2-2.1c-0.7-0.7-0.5-4.4,0-4.9c4.3,0,12,0.5,22.2,0.5L327.7,3.5L327.7,3.5z"/>
		<path class="st0" d="M182.2,31.4c0.2,0.9,4.5,0.3,5.1-0.3c0.2-7.9,1.7-20.9,2.7-27c-7.5-0.5-18.7-3.5-32.9-3.5s-25,3-33.9,8.1
			C105,18.9,96.8,37.9,96.8,56.9c0,36.5,20.7,57.9,57.9,57.9c10.2,0,20.7-2.6,25.5-4.4c3.8-2.4,11-16.1,12.7-23.7
			c-0.3-1.2-3.2-2.8-4-2.8c-4.3,7.7-8.3,13.7-12.5,17.2c-4.2,4-11.2,6-18.4,6c-29.7,0-44.5-23.7-44.5-51.8c0-29.7,13.9-48.5,38-48.5
			c8,0,15.2,1,20.7,3.9C178.4,13.8,180.5,17.3,182.2,31.4"/>
		<path class="st0" d="M85.4,31.4c0.2,0.9,4.5,0.3,5.2-0.3c0.2-7.9,1.7-20.9,2.7-27c-7.5-0.5-18.7-3.5-32.9-3.5s-25,3-33.9,8.1
			C8.2,18.9,0,37.9,0,56.9c0,36.5,20.7,57.9,57.9,57.9c10.2,0,20.7-2.6,25.5-4.4c3.8-2.4,11-16.1,12.7-23.7c-0.3-1.2-3.2-2.8-4-2.8
			c-4.3,7.7-8.3,13.7-12.5,17.2c-4.2,4-11.2,6-18.3,6c-29.7,0-44.6-23.7-44.6-51.8c0-29.7,13.9-48.5,38.1-48.5c8,0,15.2,1,20.7,3.9
			C81.6,13.8,83.8,17.3,85.4,31.4"/>
	</g>
	<g>
		<path class="st0" d="M496.9,0c-31.6,0-57.4,25.8-57.4,57.4s25.8,57.4,57.4,57.4c31.7,0,57.4-25.8,57.4-57.4S528.5,0,496.9,0z
			 M527.6,92.5c-0.1,0.1-0.1,0.1-0.2,0.2c-8.2,7.1-18.9,11.4-30.5,11.4c-25.7,0-46.7-20.9-46.7-46.6c0-25.7,20.9-46.6,46.7-46.6
			c25.7,0,46.7,20.9,46.7,46.6C543.6,71.4,537.4,83.9,527.6,92.5z"/>
		<path class="st0" d="M527.8,54c-0.6-2.1-1.3-4.6-1.1-6.6c0.2-1.4,0.7-1.8,1.3-2c0,0,0.1-0.1,0.1-0.1c0,0,0.1-0.1,0.1-0.8
			c0-1.9-0.8-6-1.3-8.1c-1.4,1.1-2.9,1.3-3,1.4c0,0-0.1,0-0.1,0c-0.2,0-0.4-0.1-0.5-0.3c-0.2-0.2-0.2-0.5,0-0.7
			c0-0.1,1.3-2.2-0.7-4.3c-1,1.5-1.7,2.1-6,3.8c2.1,2.2,2.8,4.8,3.2,7.1c0.1,0.4,0.1,0.8,0.1,1.2c1.7-1.6,3.8-2.5,5.8-1.3
			c0.3,0.2,0.4,0.6,0.2,0.9c-0.2,0.3-0.6,0.4-0.9,0.2c-2.2-1.3-4.6,1.5-5.2,2.2c-0.4,3.6-2.4,6.6-4,8.9c-0.4,0.7-0.9,1.3-1.2,1.8
			c0.2,0.6,0.4,0.9,0.4,0.9c1.3,2.3,3.9,7,1.8,14l4.5,0.3c0.4,0,1.5-0.1,2-0.8c0.2-0.4,0.1-0.6-0.2-1.3c-0.2-0.5-0.6-1.2-0.6-2
			c0-1.1,0.8-1.7,1.5-2.1c0.5-0.3,0.7-0.5,0.7-0.7c0-0.4-0.2-0.8-0.6-1.1c-0.6-0.4-1.5-0.4-2.4,0.1c-0.3,0.2-0.7,0.1-0.9-0.3
			c-0.2-0.3,0-0.7,0.3-0.9c1.2-0.7,2.5-0.7,3.4-0.2c0.3-0.2,0.5-0.4,0.7-0.5c-0.1-0.5,0-1.5,0.3-2.9h-1.2c-0.4,0-0.7-0.3-0.7-0.7
			c0-0.4,0.3-0.7,0.7-0.7h3.4c0.5,0,0.7-0.2,0.7-0.2C528.9,57.9,528.3,55.9,527.8,54z M525.8,46.5c-0.1,0.1-1.4,1.4-3.5,2.6
			c0.3,0.4,1,1,2.1,1c0.4,0,0.7,0.3,0.7,0.7c0,0.4-0.3,0.7-0.7,0.7c-2.6,0-3.6-2.3-3.6-2.4c-0.1-0.3,0-0.7,0.3-0.8
			c2.2-1.1,3.7-2.6,3.8-2.7c0.3-0.3,0.7-0.2,0.9,0C526.1,45.8,526.1,46.3,525.8,46.5z"/>
		<path class="st0" d="M517.6,89.8c-4.4-1.3-8.7-3.8-8.8-8.1V70.2c0.5-0.6,0.9-1.3,1.3-2c0,2.3,0.1,4.1,0.8,6.1
			c0.4,1.2,1.1,2.4,2.1,3.8c-0.8,2.2-1.2,4.4-1.2,6.6c0,0.4,0.3,0.7,0.7,0.7s0.7-0.3,0.7-0.7c0-1.7,0.3-3.4,0.8-5.2
			c0.4,0.5,0.8,1,1.2,1.6C518,84.6,518.3,87.9,517.6,89.8z"/>
		<path class="st0" d="M515.1,73.8c-0.3,0.8-0.7,1.6-1.1,2.4c-0.1,0.2-0.2,0.3-0.3,0.5c-0.7-1.1-1.1-2-1.5-2.8
			c-0.7-1.9-0.8-3.6-0.8-5.9c0-4.2,0.9-6,2.4-8.8c0,0.1,0.1,0.1,0.1,0.1C515.3,61.5,518,66.3,515.1,73.8z"/>
		<path class="st0" d="M506.9,35.8c-1.8-1.2-3.4-2.1-4.9-3c-2.3-1.3-4.1-2.3-5-3.6c-0.8,1.3-2.7,2.4-5,3.6c-1.5,0.8-3.2,1.8-4.9,3
			c-6.4,4.4-7.8,6.3-6.4,12.3c0.9,3.9,0.9,7,0,9.4c0,0.1,0.1,0.2,0.1,0.2l0.2,0.3c1.2,2.2,2.1,3.8,2.5,6.3c0,0,0,0.1,0,0.1
			c1.5,4.5,6.6,10.8,13.1,10.8c0.1,0,0.1,0,0.2,0c0.1,0,0.1,0,0.2,0c6.5,0,11.5-6.3,13.1-10.7c0.4-2.6,1.3-4.3,2.6-6.5l0.2-0.4
			c0-0.1,0.1-0.2,0.1-0.2c-0.9-2.4-0.9-5.5,0-9.4C514.7,42.1,513.3,40.2,506.9,35.8z M490.3,51c-0.5,0.2-1.1,0.5-1.9,0.5
			c-1.8,0-2.8-0.6-2.9-0.7c-0.3-0.2-0.4-0.6-0.2-0.9c0.2-0.3,0.6-0.4,0.9-0.2c0,0,0.8,0.5,2.2,0.5c0.6,0,1-0.2,1.4-0.4
			c0.2-0.1,0.4-0.2,0.7-0.3c-0.5-0.4-1-0.8-1.2-0.9c-1-0.6-2.2-1-4.2,0.2c-0.3,0.2-0.7,0.1-0.9-0.2s-0.1-0.7,0.2-0.9
			c2.6-1.6,4.5-0.9,5.6-0.2c0.4,0.2,1.2,0.8,1.7,1.3c1.1,0.9,1.5,1.4,1.2,1.9c-0.2,0.3-0.5,0.6-1.2,0.2
			C491,50.7,490.8,50.8,490.3,51z M500.4,68.3c-1,0.5-2.2,0.8-3.5,0.8c-1.3,0-2.5-0.3-3.5-0.8c-0.3-0.2-0.5-0.6-0.3-0.9
			c0.2-0.3,0.6-0.4,0.9-0.3c1.5,0.8,4.2,0.8,5.7,0c0.3-0.2,0.7-0.1,0.9,0.3C500.8,67.8,500.7,68.2,500.4,68.3z M501.9,66.7
			c0,0-0.1,0-0.3,0c-0.4,0-1.2-0.1-2.4-0.4c-0.6-0.2-0.9-0.1-1.3,0c-0.3,0.1-0.6,0.2-1.1,0.2c-0.5,0-0.8-0.1-1.1-0.2
			c-0.4-0.1-0.7-0.2-1.3,0c-1.8,0.5-2.7,0.4-2.8,0.4c-0.4-0.1-0.6-0.4-0.5-0.8c0-0.4,0.4-0.6,0.8-0.6c0,0,0.7,0.1,2.2-0.4
			c1-0.3,1.6-0.1,2,0c0.2,0.1,0.5,0.1,0.7,0.1s0.5-0.1,0.7-0.1c0.5-0.1,1.1-0.3,2,0c1.5,0.4,2.2,0.4,2.2,0.4
			c0.4-0.1,0.7,0.2,0.8,0.6C502.5,66.3,502.3,66.6,501.9,66.7z M509.4,48.6c-0.2,0.3-0.6,0.4-0.9,0.2c-2-1.2-3.2-0.8-4.2-0.2
			c-0.3,0.2-0.8,0.5-1.2,0.9c0.2,0.1,0.5,0.2,0.7,0.3c0.4,0.2,0.8,0.4,1.4,0.4c1.4,0,2.2-0.5,2.2-0.5c0.3-0.2,0.7-0.1,0.9,0.2
			c0.2,0.3,0.1,0.7-0.2,0.9c-0.1,0.1-1.1,0.7-2.9,0.7c-0.9,0-1.5-0.3-2-0.5c-0.5-0.2-0.7-0.4-1.2-0.1c-0.7,0.3-1.1,0.1-1.2-0.2
			c-0.3-0.6,0.1-1,1.2-1.9c0.5-0.5,1.3-1.1,1.7-1.3c1.1-0.7,3-1.4,5.6,0.2C509.5,47.9,509.6,48.3,509.4,48.6z M510,44.5
			c-0.2,0.3-0.6,0.4-0.9,0.2c0,0-0.5-0.3-1.3-0.6c-0.5-0.2-4.4-0.5-6.6,1.1c-1.1,0.8-1.7,1.9-1.7,3.5l0.4,8c0.8,0.7,1.7,2.1,0.8,3.5
			c-0.1,0.2-0.3,0.3-0.6,0.3c-0.1,0-0.2,0-0.3-0.1l0,0c0,0,0,0-0.1,0c-0.2,0-0.6,0.1-1.2,0.4c-0.7,0.4-1.3,0.6-1.8,0.6
			c-0.6,0-1.1-0.2-1.7-0.6c-0.9-0.5-1.3-0.3-1.3-0.3l0,0c-0.1,0-0.2,0.1-0.3,0.1c-0.2,0-0.4-0.1-0.6-0.3c-0.9-1.4,0-2.8,0.8-3.5
			l0.4-8c0-1.5-0.5-2.6-1.7-3.4c-2.3-1.6-6.2-1.3-6.6-1.1c-0.8,0.3-1.3,0.6-1.3,0.6c-0.3,0.2-0.7,0.1-0.9-0.2s-0.1-0.7,0.2-0.9
			c0,0,0.6-0.3,1.5-0.7c0.7-0.2,5.1-0.7,7.8,1.3c1.5,1.1,2.3,2.6,2.3,4.6l-0.4,8.3c0,0.2-0.1,0.4-0.2,0.5c0,0-1,0.8-0.9,1.6
			c0.4,0,1.1,0.1,1.8,0.6c0,0,0,0,0.1,0c0.5,0.4,1,0.6,2,0c0.8-0.5,1.4-0.6,1.9-0.6c0.1-0.8-0.9-1.5-0.9-1.6
			c-0.1-0.1-0.2-0.3-0.2-0.5l-0.4-8.3c0-2,0.8-3.6,2.3-4.6c2.8-2,7.2-1.5,7.8-1.3c0.9,0.3,1.5,0.7,1.5,0.7
			C510,43.8,510.1,44.2,510,44.5z"/>
		<path class="st0" d="M528.2,31c0,1.5-0.5,2.8-1.4,3.8c-0.6,0.6-1.3,1.1-1.9,1.3c0.3-1.3,0-3.1-1.7-4.7c0.2-0.5,0.3-0.9,0.3-0.9
			c0.1-0.4-0.2-0.7-0.5-0.8c-0.4-0.1-0.7,0.2-0.8,0.5c0,0-0.1,0.6-0.7,1.5c-0.9,1.3-1.2,1.8-5.8,3.7c-0.1,0-0.1,0.1-0.2,0.1
			c-1.2-0.9-2.6-1.8-4.5-2.5c-3.8-1.5-4.3-3.2-4-3.9c0.1-0.3,0-0.7-0.3-0.9c-0.3-0.1-0.7,0-0.9,0.3c0,0.1-0.4,0.9,0.1,2.1
			c0.6,1.4,2.2,2.6,4.7,3.6c6.2,2.4,7.3,6.1,7.9,9.6c0.8,4.6-1.7,8.2-3.7,11.2c-0.2,0.3-0.4,0.6-0.6,0.9c-0.5-2-0.3-4.5,0.4-7.5
			c1.7-7.1-0.6-9.4-6.9-13.7c-1.8-1.2-3.5-2.2-5-3c-2.7-1.5-4.7-2.6-4.8-4c0-0.4-0.3-0.7-0.7-0.6c0,0-0.1,0-0.1,0c0,0-0.1,0-0.1,0
			c-0.4,0-0.7,0.2-0.7,0.6c-0.1,1.5-2.1,2.5-4.8,4c-1.5,0.8-3.2,1.8-5,3c-6.3,4.3-8.5,6.7-6.9,13.7c0.7,3.1,0.9,5.5,0.4,7.5
			c-0.2-0.3-0.4-0.6-0.6-0.9c-2-2.9-4.5-6.6-3.7-11.2c0.6-3.6,1.7-7.2,7.9-9.6c2.5-1,4.1-2.2,4.7-3.6c0.5-1.1,0.1-2,0.1-2.1
			c-0.1-0.3-0.5-0.5-0.9-0.3c-0.3,0.1-0.5,0.5-0.4,0.9c0.3,0.7-0.2,2.5-4,3.9c-6.1,2.4-7.8,5.9-8.5,9.3c-2.7-3.1-2.5-5.9-1.8-7.8
			c0,0,0,0,0,0c0,0,0-0.1,0-0.1c0,0,0,0,0-0.1s0,0,0-0.1v-0.1v0c0,0,0,0,0,0c0,0,0-0.1,0-0.1c0,0,0,0,0-0.1s0,0,0-0.1c0,0,0,0,0-0.1
			c0,0,0,0,0-0.1c0,0,0,0,0-0.1c0,0,0,0,0,0c0,0,0,0,0,0c0,0,0,0,0,0c0,0,0,0-0.1,0c0,0,0,0,0,0h0c0,0,0,0-0.1,0c0,0,0,0,0,0
			s0,0-0.1,0H472c-0.3,0-0.7,0.1-1,0.1c-1.8,0-3.7,1.2-4.4,2.7c-0.4,0.8-0.4,1.6-0.1,2.4c-0.6-0.1-1.1-0.3-1.5-0.6c0,0,0,0,0,0
			c-1-0.7-1.5-1.8-1.5-2.9c0-0.4,0.1-4.3,4.7-4.3c3.3,0,4.4-0.7,6.1-1.8c0.6-0.4,1.2-0.8,2.1-1.3c1.7-1,3.7-1,5.1-0.8
			c1.4,0.1,2.5,0.5,2.5,0.5c0.4,0.1,0.7-0.1,0.9-0.4c0.1-0.3-0.1-0.7-0.4-0.8c0,0-0.6-0.2-1.5-0.4c2.8-2.7,8.1-5.1,13.8-2.2
			c0.2,0.1,0.4,0.1,0.6,0c6.1-3.1,8.9-0.3,11.8,3.6c1.9,2.5,2.8,3.7,2.9,3.8c0.1,0.2,0.3,0.3,0.5,0.3c0.1,0,0.3,0,0.4-0.1
			c0.3-0.2,0.3-0.7,0.1-0.9c0,0-0.8-1-2.3-3c1,0.1,2.1,0.1,3.4,0.1C519.3,27.4,528.2,27.6,528.2,31z"/>
		<path class="st0" d="M482.6,67.9c0,2.4,0,4.1-0.8,5.9c-0.3,0.9-0.8,1.8-1.5,2.8c-0.1-0.2-0.2-0.3-0.3-0.5
			c-0.4-0.8-0.8-1.6-1.1-2.4c-2.9-7.4-0.2-12.2,1.1-14.5c0,0,0-0.1,0.1-0.1C481.8,61.9,482.6,63.6,482.6,67.9z"/>
		<path class="st0" d="M485.3,81.6c-0.1,4.3-4.4,6.8-8.8,8.1c-0.7-1.9-0.4-5.1,2.4-8.7c0.5-0.6,0.9-1.1,1.2-1.6
			c0.5,1.8,0.8,3.6,0.8,5.2c0,0.4,0.3,0.7,0.7,0.7l0,0c0.4,0,0.7-0.3,0.7-0.7c0-2.1-0.4-4.3-1.2-6.6c1-1.4,1.6-2.7,2.1-3.8
			c0.8-2,0.8-3.9,0.8-6.2c0.4,0.6,0.8,1.3,1.3,1.9V81.6z"/>
		<path class="st0" d="M525.3,92.6c-7.8,6.3-17.7,10.1-28.5,10.1c-10.8,0-20.6-3.8-28.4-10c1.8-0.2,4.9-0.6,8.1-1.5
			c6.4-1.9,9.9-5.2,10.1-9.5V71.6c2.6,2.8,6.2,5.1,10.3,5.1c0.1,0,0.1,0,0.2,0c0.1,0,0.1,0,0.2,0c4,0,7.2-2.1,9.1-3.9
			c0.4-0.3,0.7-0.7,1.1-1.1v9.9c0.1,4.3,3.6,7.6,10.1,9.5C520.6,92,523.6,92.4,525.3,92.6z"/>
		<path class="st0" d="M542.2,57.4c0,13.5-6,25.7-15.4,34c-1-0.1-4.3-0.3-7.9-1.3c0.8-2.3,0.5-5.9-2.6-9.9c-0.7-0.9-1.2-1.6-1.7-2.3
			c0.2-0.4,0.4-0.8,0.6-1.2c0.4-0.8,0.8-1.7,1.2-2.5c0-0.1,0.1-0.2,0.1-0.4l4.9,0.3h0c0.3,0,2.3-0.1,3.1-1.5c0.6-1,0.2-1.9-0.2-2.6
			c-0.2-0.5-0.4-0.9-0.4-1.4c0-0.4,0.3-0.6,0.9-1c0.6-0.4,1.3-0.9,1.3-1.9c0-0.5-0.2-1-0.5-1.5c0.4-0.3,0.8-0.6,0.9-1
			c0.1-0.2,0.1-0.5,0-0.7c0-0.3,0.1-1.5,0.4-2.6h0.8c0.8,0,1.4-0.2,1.8-0.8c0.9-1.2,0.3-3.1-0.5-5.6c-0.6-2-1.3-4.3-1-6.1
			c0.1-0.8,0.2-0.8,0.4-0.9c0.7-0.3,1.1-0.7,1.1-2.1c0-2.3-1.1-7.5-1.5-9.2c1-1.2,1.5-2.7,1.5-4.5c0-4.7-9-5-15.5-5.2
			c-1.8,0-3.4-0.1-4.4-0.2c0,0-0.1,0-0.1,0c-2.4-3.2-5.8-6.8-12.7-3.5c-6.7-3.2-13,0.2-15.8,3.4c-2.1-0.2-4,0.2-5.5,1
			c-0.9,0.5-1.6,1-2.2,1.3c-1.7,1.1-2.4,1.6-5.3,1.6c-4.8,0-6.1,3.6-6.1,5.6c0,1.4,0.7,2.8,1.8,3.8c0,0,0,0,0,0
			c-0.2,1.6-0.5,4.2-0.8,4.8c-0.4,0.9-0.6,1.2-0.7,1.2c-0.1,0.2-0.1,0.3-0.1,0.5c0.2,0.7,0.8,1.9,2.1,2h0c0,0,0,0,0,0s0,0,0.1,0
			c0,0,0,0,0.1,0c0,0,0,0,0,0c4-1.5,5.2,0.2,5.7,0.8l0.1,0.1c0.3,0.4,0.4,1.2,0.2,1.6c-0.3,0.7-1.3,1.2-2,1.2
			c-0.2,0-0.4-0.1-0.6-0.1c-0.4-0.1-0.9-0.2-1.3,0.1c-0.4,0.3-0.4,0.8-0.4,1.2c0,1.2,0.6,1.8,1,2.1c0.1,0.1,0.5,0.6,0.5,1.4
			c0,1.9,0.8,3.2,2.5,4.2c1.4,0.8,1.6,1.9,1.6,1.9c0,0.3,0.3,0.6,0.7,0.6c0,0,0.1,0,0.1,0c0.4-0.1,0.6-0.4,0.5-0.8
			c0-0.1-0.3-1.7-2.3-2.9c-1.6-0.9-1.9-2.1-1.9-3.1c0-1.7-0.9-2.4-1-2.5c0,0-0.1-0.1-0.1-0.1c0,0-0.4-0.2-0.4-0.9c0,0,0,0,0,0
			c0.2,0.1,0.6,0.1,0.9,0.1c1.1,0,2.6-0.7,3.1-1.8c0.5-0.8,0.2-2.3-0.4-3l-0.1-0.1c-0.6-0.8-2.3-3-7.1-1.3c-0.4-0.1-0.6-0.4-0.7-0.7
			c0.1-0.2,0.3-0.6,0.5-1.1c0.4-0.8,0.7-3.3,0.9-4.6c0.8,0.3,1.7,0.5,2.7,0.5c0.3,0,0.5-0.2,0.6-0.4c0.1-0.2,0.1-0.5-0.1-0.7
			c-0.6-0.7-0.8-1.4-0.4-2.2c0.5-1.1,1.9-1.9,3.2-1.9c0.1,0,0.1,0,0.2,0c-0.5,2.2-0.4,5.3,2.6,8.4c0.2,0.2,0.4,0.4,0.5,0.6
			c-0.7,4.9,2,8.9,3.9,11.8c0.4,0.7,0.9,1.3,1.2,1.8c-0.2,0.6-0.4,0.9-0.4,0.9c-1.3,2.4-4,7.2-1.6,14.6c-1.5-0.3-2.6-0.7-2.8-0.8
			c-0.3-0.1-2-0.9-3.8,0c-0.7,0.4-1.2,0-1.3-0.2c-0.2-0.2-0.4-0.7-0.2-1c0.6-1.2,0.8-1.6,0.8-2.4c0-0.9-0.2-1.4-0.5-1.8
			c-0.5-0.4-1-0.4-1.4-0.4c-0.2,0-0.4,0-0.5,0c0,0-0.2-0.2-0.1-0.5c0-0.4,0.3-0.8,0.9-1.1c0.4,0,0.8,0.1,1.3,0
			c1.5-0.1,2.2,0.4,2.2,0.4c0.1,0.1,0.3,0.2,0.5,0.2c0.2,0,0.4-0.1,0.5-0.2c0.3-0.3,0.2-0.7,0-0.9c-0.1-0.1-1.1-0.9-3.3-0.7
			c-1.1,0.1-1.9-0.2-2.2-0.3l-0.2-2.9c0.2,0.1,0.5,0.2,0.9,0.3c0.1,0,0.1,0,0.2,0c0.3,0,0.6-0.2,0.6-0.5c0.1-0.3-0.1-0.7-0.5-0.8
			c-0.3-0.1-0.5-0.2-0.7-0.3c-0.3-0.1-0.5-0.2-0.9-0.3c-0.1-0.1-0.3-0.1-0.4-0.1c-0.1,0-0.1,0-0.2,0c-0.3,0-0.7,0-1.1,0
			c-0.2,0-0.7,0-0.8-0.2c-0.2-0.2,0-0.8,0.1-1c0,0,0-0.1,0-0.1c0-0.1,0.6-2.3,0.6-4.1c0-1.7,0.1-3.8,0.2-3.8c0-0.4-0.2-0.7-0.6-0.7
			c-0.4,0-0.7,0.2-0.7,0.6c0,0.1-0.2,2.2-0.2,3.9c0,1.5-0.5,3.4-0.6,3.7c-0.1,0.3-0.5,1.3,0.1,2.2c0.4,0.6,1,0.8,1.9,0.8
			c0.3,0,0.5,0,0.7,0l0.2,3.6c0,0.2,0.1,0.3,0.2,0.5c0,0,0.2,0.2,0.5,0.3c-0.5,0.6-0.6,1.2-0.6,1.6c0,0.7,0.3,1.3,0.8,1.6
			c0.4,0.2,0.8,0.2,1.2,0.2c0.2,0,0.4,0,0.5,0c0,0,0.1,0.2,0.1,0.9c0,0.4,0,0.6-0.6,1.8c-0.4,0.8-0.2,1.8,0.5,2.5
			c0.8,0.8,1.9,0.9,2.9,0.4c1.3-0.7,2.6,0,2.6,0c0,0,0,0,0.1,0c0.1,0,1.8,0.7,3.9,1c0.3,0.7,0.6,1.4,1,2.2c0.2,0.4,0.4,0.8,0.6,1.2
			c-0.5,0.7-1,1.4-1.7,2.3c-3.1,3.9-3.4,7.6-2.6,9.9c-4.2,1.1-8.1,1.3-8.2,1.3l0,0c-9.5-8.3-15.5-20.5-15.5-34
			c0-25,20.3-45.3,45.3-45.3C521.9,12.1,542.2,32.4,542.2,57.4z"/>
	</g>
	<rect x="589.1" class="st0" width="4.7" height="114.8"/>
	<g>
		<polygon class="st0" points="656.7,59.4 656.7,77.6 640.5,59.4 632.1,59.4 632.1,59.4 632.1,93.4 641.4,93.4 641.4,75.2 
			657.5,93.4 666.1,93.4 666.1,59.4 		"/>
		<path class="st0" d="M700.1,45.1c0-1.2,0-2.5,0-3.7c0-1.1,0-2.3,0-3.3l0,0l0,0c0-6.5,0-11.9,0-11.9h-9.1h-0.2V38v7.1
			c0,0.8-0.1,1.6-0.4,2.3c-0.3,0.9-0.9,1.6-1.7,2.3c-1.4,1.2-3.5,2-5.6,2l0,0l0,0h0h0l0,0l0,0c-2.1,0-4.2-0.7-5.6-2
			c-0.8-0.7-1.3-1.4-1.7-2.3c-0.3-0.7-0.4-1.4-0.4-2.3V38V26.1h-0.2h-9.2c0,0,0,5.4,0,11.9l0,0l0,0c0,1.1,0,2.2,0,3.3
			c0,1.2,0,2.5,0,3.7v2.3l0,0c0,7.5,8.1,13.5,16.6,13.6c0.1,0,0.2,0,0.3,0c0,0,0.1,0,0.1,0c0,0,0,0,0.1,0l0,0h0h0c0,0,0,0,0,0h0
			c0,0,0,0,0.1,0c0,0,0.1,0,0.1,0c0.1,0,0.2,0,0.3,0c8.4-0.1,16.6-5.9,16.6-13.6l0,0L700.1,45.1L700.1,45.1z"/>
		<path class="st0" d="M655.9,47.4c-1.5,2.5-4.2,4.2-7.3,4.2c0,0-0.1,0-0.1,0c-4.8,0-8.7-4-8.7-8.9s3.9-8.9,8.7-8.9c0,0,0.1,0,0.1,0
			c3.1,0,5.8,1.7,7.3,4.2h10.2c0-7.7-8.1-13.5-16.5-13.6c0,0,0,0-0.1,0c-0.1,0-0.2,0-0.3,0c0,0-0.1,0-0.1,0c0,0,0,0-0.1,0h0
			c0,0,0,0,0,0h0h0l0,0c0,0,0,0-0.1,0c0,0-0.1,0-0.1,0c-0.1,0-0.2,0-0.3,0H648c-6.7,0-12.5,3.6-15.7,9c-1.6,2.7-2.5,5.9-2.5,9.3l0,0
			l0,0l0,0l0,0c0,3.4,0.9,6.6,2.5,9.3c3.2,5.4,9,9,15.7,9h0.7c0.1,0,0.2,0,0.3,0c0,0,0.1,0,0.1,0c0,0,0,0,0.1,0l0,0h0h0c0,0,0,0,0,0
			h0c0,0,0,0,0.1,0c0,0,0.1,0,0.1,0c0.1,0,0.2,0,0.3,0c0,0,0,0,0.1,0c8.4-0.2,16.5-5.9,16.5-13.6L655.9,47.4L655.9,47.4z"/>
		<polygon class="st0" points="690.7,59.4 683.1,75 675.4,59.4 666.1,59.4 678.4,84.5 678.4,93.4 687.8,93.4 687.8,84.5 700.1,59.4 
					"/>
	</g>
</g>
</svg>
